<svg width="512" height="512" viewBox="0 0 512 512" fill="none" xmlns="http://www.w3.org/2000/svg">
<g clip-path="url(#clip0_5_31)">
<rect width="512" height="512" rx="80.4891" fill="black"/>
<path d="M469.61 471.65H42.3897V395.361H61.3936V452.645H450.606V395.361H469.61V471.65ZM469.61 122.244H450.606V63.4329H61.3936V122.244H42.3897V44.429H469.61V122.244Z" fill="#FFCF0D"/>
<path d="M194.753 353.62V107.769H226.413V353.62C226.413 371.087 220.226 386.007 207.854 398.38C195.481 410.753 180.561 416.939 163.094 416.939V385.28C171.828 385.28 179.324 382.15 185.583 375.891C191.697 369.777 194.753 362.354 194.753 353.62ZM284.273 246.415H292.352C307.053 246.415 319.644 241.248 330.124 230.913C340.605 220.432 345.845 207.769 345.845 192.921C345.845 178.22 340.605 165.629 330.124 155.149C319.644 144.668 307.053 139.428 292.352 139.428H284.273V246.415ZM330.124 369.559C340.605 359.079 345.845 346.488 345.845 331.786C345.845 316.939 340.605 304.275 330.124 293.795C319.644 283.46 307.053 278.293 292.352 278.293H284.273V385.28H292.352C307.053 385.28 319.644 380.039 330.124 369.559ZM352.395 132.659C369.135 149.399 377.504 169.486 377.504 192.921C377.504 222.179 365.568 245.323 341.697 262.354C365.568 279.384 377.504 302.528 377.504 331.786C377.504 355.221 369.135 375.309 352.395 392.048C335.801 408.642 315.787 416.939 292.352 416.939H252.614V107.769H292.352C315.787 107.769 335.801 116.066 352.395 132.659Z" fill="#FFCF0D"/>
</g>
<defs>
<clipPath id="clip0_5_31">
<rect width="512" height="512" rx="80.4891" fill="white"/>
</clipPath>
</defs>
</svg>
