<svg width="458" height="458" viewBox="0 0 458 458" fill="none" xmlns="http://www.w3.org/2000/svg">
<g clip-path="url(#clip0_1_18)">
<rect width="458" height="458" rx="72" fill="black"/>
<path d="M420.081 421.905H37.9189V353.662H54.9189V404.905H403.081V353.662H420.081V421.905ZM420.081 109.352H403.081V56.7432H54.9189V109.352H37.9189V39.7432H420.081V109.352Z" fill="#FFCF0D"/>
<path d="M174.422 316.359V96.4375H202.742V316.359C202.742 331.984 197.208 345.331 186.141 356.398C175.073 367.466 161.727 373 146.102 373V344.68C153.914 344.68 160.62 341.88 166.219 336.281C171.688 330.812 174.422 324.172 174.422 316.359ZM254.5 220.461H261.727C274.878 220.461 286.141 215.839 295.516 206.594C304.891 197.219 309.578 185.891 309.578 172.609C309.578 159.458 304.891 148.195 295.516 138.82C286.141 129.445 274.878 124.758 261.727 124.758H254.5V220.461ZM295.516 330.617C304.891 321.242 309.578 309.979 309.578 296.828C309.578 283.547 304.891 272.219 295.516 262.844C286.141 253.599 274.878 248.977 261.727 248.977H254.5V344.68H261.727C274.878 344.68 286.141 339.992 295.516 330.617ZM315.438 118.703C330.411 133.677 337.898 151.646 337.898 172.609C337.898 198.781 327.221 219.484 305.867 234.719C327.221 249.953 337.898 270.656 337.898 296.828C337.898 317.792 330.411 335.76 315.438 350.734C300.594 365.578 282.69 373 261.727 373H226.18V96.4375H261.727C282.69 96.4375 300.594 103.859 315.438 118.703Z" fill="#FFCF0D"/>
</g>
<defs>
<clipPath id="clip0_1_18">
<rect width="458" height="458" rx="72" fill="white"/>
</clipPath>
</defs>
</svg>
