<svg width="192" height="192" viewBox="0 0 192 192" fill="none" xmlns="http://www.w3.org/2000/svg">
<g clip-path="url(#clip0_5_15)">
<rect width="192" height="192" rx="30.1834" fill="black"/>
<path d="M176.104 176.869H15.8961V148.26H23.0231V169.742H168.977V148.26H176.104V176.869ZM176.104 45.8416H168.977V23.7878H23.0231V45.8416H15.8961V16.6609H176.104V45.8416Z" fill="#FFCF0D"/>
<path d="M73.345 132.483V40.2882H85.2173V132.483C85.2173 139.033 82.8974 144.628 78.2576 149.267C73.6179 153.907 68.0229 156.227 61.4727 156.227V144.355C64.7478 144.355 67.559 143.181 69.9061 140.834C72.1987 138.541 73.345 135.758 73.345 132.483ZM106.915 92.2805H109.944C115.457 92.2805 120.179 90.3428 124.109 86.4672C128.039 82.5371 130.004 77.7882 130.004 72.2205C130.004 66.7074 128.039 61.9858 124.109 58.0557C120.179 54.1255 115.457 52.1605 109.944 52.1605H106.915V92.2805ZM124.109 138.46C128.039 134.529 130.004 129.808 130.004 124.295C130.004 118.727 128.039 113.978 124.109 110.048C120.179 106.172 115.457 104.235 109.944 104.235H106.915V144.355H109.944C115.457 144.355 120.179 142.39 124.109 138.46ZM132.461 49.6222C138.738 55.8995 141.877 63.4323 141.877 72.2205C141.877 83.1921 137.401 91.8712 128.449 98.2576C137.401 104.644 141.877 113.323 141.877 124.295C141.877 133.083 138.738 140.616 132.461 146.893C126.238 153.116 118.733 156.227 109.944 156.227H95.0426V40.2882H109.944C118.733 40.2882 126.238 43.3995 132.461 49.6222Z" fill="#FFCF0D"/>
</g>
<defs>
<clipPath id="clip0_5_15">
<rect width="192" height="192" rx="30.1834" fill="white"/>
</clipPath>
</defs>
</svg>
