<svg width="458" height="458" viewBox="0 0 458 458" fill="none" xmlns="http://www.w3.org/2000/svg">
<rect width="458" height="458" rx="72" fill="black"/>
<path d="M420.081 421.905H37.9189V353.662H48.8379V410.986H409.162V353.662H420.081V421.905ZM420.081 109.352H409.162V50.6622H48.8379V109.352H37.9189V39.7432H420.081V109.352Z" fill="#FFCF0D"/>
<path d="M166.863 301.261V115.535H190.779V301.261C190.779 314.456 186.106 325.728 176.759 335.074C167.412 344.421 156.141 349.095 142.946 349.095V325.178C149.543 325.178 155.207 322.814 159.935 318.085C164.553 313.467 166.863 307.859 166.863 301.261ZM244.623 220.274H250.726C261.833 220.274 271.344 216.37 279.262 208.563C287.179 200.646 291.137 191.079 291.137 179.863C291.137 168.757 287.179 159.245 279.262 151.327C271.344 143.41 261.833 139.452 250.726 139.452H244.623V220.274ZM279.262 313.302C287.179 305.385 291.137 295.873 291.137 284.767C291.137 273.551 287.179 263.984 279.262 256.067C271.344 248.259 261.833 244.356 250.726 244.356H244.623V325.178H250.726C261.833 325.178 271.344 321.219 279.262 313.302ZM296.086 134.338C308.731 146.984 315.054 162.159 315.054 179.863C315.054 201.965 306.037 219.449 288.004 232.315C306.037 245.18 315.054 262.664 315.054 284.767C315.054 302.471 308.731 317.645 296.086 330.291C283.55 342.827 268.43 349.095 250.726 349.095H220.707V115.535H250.726C268.43 115.535 283.55 121.803 296.086 134.338Z" fill="#FFCF0D"/>
</svg>
