<svg width="384" height="384" viewBox="0 0 384 384" fill="none" xmlns="http://www.w3.org/2000/svg">
<g clip-path="url(#clip0_5_39)">
<rect width="384" height="384" rx="60.3668" fill="black"/>
<path d="M352.207 353.737H31.7923V296.52H46.0452V339.484H337.954V296.52H352.207V353.737ZM352.207 91.6831H337.954V47.5747H46.0452V91.6831H31.7923V33.3218H352.207V91.6831Z" fill="#FFCF0D"/>
<path d="M146.19 264.965V80.5764H169.935V264.965C169.935 278.065 165.295 289.255 156.015 298.535C146.736 307.814 135.546 312.454 122.445 312.454V288.71C128.996 288.71 134.618 286.362 139.312 281.668C143.897 277.083 146.19 271.515 146.19 264.965ZM213.33 184.561H219.389C230.415 184.561 239.858 180.686 247.718 172.934C255.579 165.074 259.509 155.576 259.509 144.441C259.509 133.415 255.579 123.972 247.718 116.111C239.858 108.251 230.415 104.321 219.389 104.321H213.33V184.561ZM247.718 276.919C255.579 269.059 259.509 259.616 259.509 248.589C259.509 237.454 255.579 227.956 247.718 220.096C239.858 212.345 230.415 208.469 219.389 208.469H213.33V288.71H219.389C230.415 288.71 239.858 284.779 247.718 276.919ZM264.421 99.2445C276.976 111.799 283.253 126.865 283.253 144.441C283.253 166.384 274.301 183.742 256.397 196.515C274.301 209.288 283.253 226.646 283.253 248.589C283.253 266.166 276.976 281.231 264.421 293.786C251.976 306.231 236.965 312.454 219.389 312.454H189.585V80.5764H219.389C236.965 80.5764 251.976 86.7991 264.421 99.2445Z" fill="#FFCF0D"/>
</g>
<defs>
<clipPath id="clip0_5_39">
<rect width="384" height="384" rx="60.3668" fill="white"/>
</clipPath>
</defs>
</svg>
