<svg width="256" height="256" viewBox="0 0 256 256" fill="none" xmlns="http://www.w3.org/2000/svg">
<g clip-path="url(#clip0_5_23)">
<rect width="256" height="256" rx="40.2445" fill="black"/>
<path d="M234.805 235.825H21.1949V197.68H30.6968V226.323H225.303V197.68H234.805V235.825ZM234.805 61.1217H225.303V31.7164H30.6968V61.1217H21.1949V22.2145H234.805V61.1217Z" fill="#FFCF0D"/>
<path d="M97.6266 176.31V53.3843H113.456V176.31C113.456 185.044 110.363 192.504 104.177 198.69C97.9905 204.876 90.5306 207.969 81.7969 207.969V192.14C86.1638 192.14 89.9119 190.575 93.0415 187.445C96.0983 184.389 97.6266 180.677 97.6266 176.31ZM142.386 122.707H146.426C153.777 122.707 160.072 120.124 165.312 114.956C170.552 109.716 173.172 103.384 173.172 95.9607C173.172 88.6099 170.552 82.3145 165.312 77.0743C160.072 71.8341 153.777 69.214 146.426 69.214H142.386V122.707ZM165.312 184.28C170.552 179.039 173.172 172.744 173.172 165.393C173.172 157.969 170.552 151.638 165.312 146.397C160.072 141.23 153.777 138.646 146.426 138.646H142.386V192.14H146.426C153.777 192.14 160.072 189.52 165.312 184.28ZM176.448 65.8297C184.817 74.1995 189.002 84.2431 189.002 95.9607C189.002 110.59 183.034 122.162 171.098 130.677C183.034 139.192 189.002 150.764 189.002 165.393C189.002 177.111 184.817 187.154 176.448 195.524C168.151 203.821 158.143 207.969 146.426 207.969H126.557V53.3843H146.426C158.143 53.3843 168.151 57.5328 176.448 65.8297Z" fill="#FFCF0D"/>
</g>
<defs>
<clipPath id="clip0_5_23">
<rect width="256" height="256" rx="40.2445" fill="white"/>
</clipPath>
</defs>
</svg>
